<?xml version="1.0" encoding="UTF-8"?>
<!-- Generated by Pixelmator Pro 3.7 -->
<svg width="2560" height="1172" viewBox="0 0 2560 1172" xmlns="http://www.w3.org/2000/svg">
    <path id="Shape" fill="#000000" fill-rule="evenodd" stroke="none" d="M 1187 1171.55481 C 686.334717 1171.655151 274.459808 1171.350952 269.5 1170.877197 C 264.549988 1170.404541 255.100006 1169.106445 248.5 1167.992676 C 241.899994 1166.878784 231.369934 1164.60083 225.099854 1162.930298 C 218.829758 1161.259766 208.704758 1158.060059 202.599854 1155.819702 C 196.494934 1153.579346 187.028198 1149.741699 181.562653 1147.291748 C 176.097122 1144.841797 166.422119 1139.891357 160.062653 1136.290894 C 153.703201 1132.69043 144.899994 1127.249634 140.5 1124.200195 C 136.100006 1121.150635 128.225006 1115.279785 123 1111.153564 C 117.775002 1107.027466 108.090202 1098.217407 101.478218 1091.575806 C 94.866241 1084.934082 85.117058 1074.072266 79.813362 1067.438477 C 74.509674 1060.804688 67.416565 1051.129639 64.050903 1045.938477 C 60.685238 1040.747314 55.159531 1031.099976 51.771545 1024.5 C 48.383564 1017.900024 43.966991 1008.674988 41.956944 1004 C 39.946892 999.325012 36.848289 991.224976 35.071156 986 C 33.294022 980.775024 30.511175 971.349609 28.887053 965.054626 C 27.26293 958.759644 25.005589 948.184692 23.870737 941.554626 C 22.408379 933.01123 21.644402 922.946289 21.247858 907 C 20.900019 893.012207 21.138304 879.3927 21.877708 871 C 22.53186 863.575012 24.195915 851.875 25.575605 845 C 26.955297 838.125 29.8873 826.252441 32.091167 818.616516 C 34.295036 810.980591 41.933685 786.120483 49.065945 763.371765 C 56.198204 740.623108 80.025261 664.632935 102.014954 594.5047 C 124.004654 524.376465 159.790802 410.186584 181.539719 340.74939 C 203.288651 271.312256 224.209686 204.824951 228.03093 193 C 233.454559 176.216309 236.936035 167.551392 243.901764 153.5 C 248.809479 143.599976 256.436646 130.099976 260.851044 123.5 C 265.265411 116.900024 271.919312 107.675049 275.637451 103 C 279.355621 98.324951 288.747864 88.16687 296.509094 80.426392 C 305.449799 71.509644 315.906555 62.401733 325.046844 55.569824 C 332.981323 49.639282 343.665985 42.319336 348.790497 39.303345 C 353.915039 36.287476 364.946045 30.506226 373.303894 26.456177 C 381.661774 22.406128 393.899994 17.294067 400.5 15.095947 C 407.100006 12.897705 417 9.930176 422.5 8.501343 C 428 7.072388 437.644745 5.018677 443.93277 3.937378 C 450.220825 2.856201 462.820801 1.485229 471.93277 0.890869 C 483.674683 0.125 751.068787 -0.075195 1390 0.203125 C 2291.5 0.596069 2291.5 0.596069 2304 2.724487 C 2310.875 3.895264 2321.225098 5.992065 2327 7.384155 C 2332.774902 8.776245 2342.899902 11.683105 2349.5 13.84375 C 2356.100098 16.004517 2366.057373 19.780396 2371.627686 22.234863 C 2377.197754 24.689209 2386.647949 29.28186 2392.627686 32.440918 C 2398.607422 35.599854 2408.449951 41.435181 2414.5 45.408203 C 2420.550049 49.381348 2429.324951 55.6875 2434 59.421875 C 2438.675049 63.156372 2447.837646 71.45166 2454.361328 77.855957 C 2460.885254 84.260132 2470.595703 94.708374 2475.940186 101.074219 C 2481.284912 107.439941 2488.614746 117.11499 2492.229248 122.574219 C 2495.84375 128.033325 2501.274414 137 2504.297363 142.5 C 2507.320557 148 2511.860107 157.103638 2514.385254 162.730347 C 2516.910645 168.357056 2521.21167 179.607056 2523.943115 187.730347 C 2526.674805 195.853638 2530.027832 207.449951 2531.394287 213.5 C 2532.760742 219.550049 2534.598877 229.224976 2535.47876 235 C 2536.358887 240.775024 2537.356689 254.232666 2537.695801 264.906006 C 2538.077393 276.9104 2537.864258 289.377441 2537.136963 297.593018 C 2536.490234 304.897583 2535.251953 315.064941 2534.38501 320.187012 C 2533.518311 325.309204 2531.074951 336.25 2528.955566 344.5 C 2526.836182 352.75 2518.549561 380.311096 2510.541016 405.746887 C 2502.532471 431.182617 2484.05835 490.019775 2469.487549 536.496155 C 2454.916992 582.972473 2431.062988 659.02124 2416.479004 705.493469 C 2401.895264 751.965637 2378.92334 825.203491 2365.430664 868.244202 C 2351.937988 911.284912 2338.165771 955.5 2334.825928 966.5 C 2331.486084 977.5 2326.699463 991.674988 2324.189209 998 C 2321.678955 1004.325012 2316.625488 1015.401611 2312.959473 1022.614624 C 2309.293457 1029.827637 2302.804688 1041.013184 2298.540283 1047.471191 C 2294.275879 1053.929199 2287.836426 1062.877563 2284.230225 1067.356445 C 2280.624268 1071.835449 2274.185303 1079.324951 2269.921387 1084 C 2265.657471 1088.675049 2257.518555 1096.621826 2251.834473 1101.659546 C 2246.150635 1106.697266 2238.574951 1113.064331 2235 1115.80835 C 2231.425049 1118.55249 2223.550049 1124.010498 2217.5 1127.937378 C 2211.449951 1131.864258 2201.550049 1137.614136 2195.5 1140.714844 C 2189.449951 1143.815674 2180.675049 1148.009766 2176 1150.035278 C 2171.324951 1152.060791 2161.875 1155.576904 2155 1157.848877 C 2148.125 1160.12085 2136.875 1163.324707 2130 1164.968506 C 2123.125 1166.612305 2112.550049 1168.72583 2106.5 1169.665039 C 2096.193848 1171.265259 2038.201294 1171.384399 1187 1171.55481 Z M 786.5 920.573853 C 798.599976 920.57312 803.412537 920.428711 797.19458 920.25293 C 790.976624 920.077271 781.076599 920.077881 775.19458 920.254395 C 769.312561 920.430847 774.400024 920.574585 786.5 920.573853 Z M 1926.5 815.562256 C 1941.349976 815.562805 1947.564453 815.423645 1940.309814 815.252991 C 1933.055176 815.082397 1920.905151 815.08197 1913.309814 815.252075 C 1905.714355 815.422119 1911.650024 815.561768 1926.5 815.562256 Z M 2000.5 815.562256 C 2015.349976 815.562805 2021.564453 815.423645 2014.309814 815.252991 C 2007.055176 815.082397 1994.905151 815.08197 1987.309814 815.252075 C 1979.714355 815.422119 1985.650024 815.561768 2000.5 815.562256 Z M 1926.5 747.562256 C 1941.349976 747.562805 1947.564453 747.423645 1940.309814 747.252991 C 1933.055176 747.082397 1920.905151 747.08197 1913.309814 747.252075 C 1905.714355 747.422119 1911.650024 747.561768 1926.5 747.562256 Z M 2000.5 747.562256 C 2015.349976 747.562805 2021.564453 747.423645 2014.309814 747.252991 C 2007.055176 747.082397 1994.905151 747.08197 1987.309814 747.252075 C 1979.714355 747.422119 1985.650024 747.561768 2000.5 747.562256 Z M 1926 727.943542 C 1904.6875 728.422302 1910.875 728.561279 1926 728.561279 C 1941.125 728.561279 1947.3125 728.422302 1939.75 728.252441 L 1926 727.943542 Z M 2000.5 728.562256 C 2015.349976 728.562805 2021.564453 728.423645 2014.309814 728.252991 C 2007.055176 728.082397 1994.905151 728.08197 1987.309814 728.252075 C 1979.714355 728.422119 1985.650024 728.561768 2000.5 728.562256 Z"/>
    <path id="path1" fill="#98d835" fill-rule="evenodd" stroke="none" d="M 2185.092041 860.5 L 2185 665 L 2201.75 664.929688 C 2210.962402 664.891052 2219.335693 664.530762 2220.356934 664.129089 C 2221.850098 663.54187 2196.873047 641.414612 2092.88208 551.199402 C 2021.749634 489.489746 1963.292114 439 1962.976563 439 C 1962.661011 439 1904.174072 489.512512 1833.005615 551.25 C 1703.608398 663.5 1703.608398 663.5 1709.554199 664.141479 C 1712.824463 664.494263 1721.237549 664.831787 1728.25 664.891479 L 1741 665 L 1741 843 L 1741 1021 L 1659.606934 1021 C 1586.309692 1021 1578.153564 1020.842651 1577.606934 1019.418213 C 1577.273193 1018.548218 1577 975.496155 1577 923.746948 C 1577 838.944641 1576.842285 829.483154 1575.401733 827.891418 C 1574.005615 826.348816 1573.888428 823.809021 1574.475098 807.812683 C 1574.844482 797.740723 1575.238281 786.125 1575.35022 782 C 1575.46228 777.875 1576.125732 772.025024 1576.824829 769 C 1577.523804 765.974976 1578.290894 759.900024 1578.529297 755.5 C 1578.767822 751.099976 1579.66394 742.099976 1580.520752 735.5 C 1581.377563 728.900024 1583.166504 717.200012 1584.496216 709.5 C 1585.825806 701.799988 1588.249268 689.650024 1589.881592 682.5 C 1591.513794 675.349976 1595.182983 661.400024 1598.035278 651.5 C 1600.887573 641.599976 1605.465942 627.200012 1608.209351 619.5 C 1610.952759 611.799988 1615.128296 600.775024 1617.488159 595 C 1619.848022 589.224976 1624.73999 578.067505 1628.359253 570.205505 C 1631.978394 562.343567 1638.165283 549.968567 1642.107788 542.705505 C 1646.050171 535.442505 1652.65979 523.875 1656.795776 517 C 1660.931641 510.125 1667.705078 499.549988 1671.847778 493.5 C 1675.990601 487.450012 1683.972168 476.424988 1689.584839 469 C 1695.197388 461.575012 1704.223755 450.325012 1709.643311 444 C 1715.062988 437.674988 1725.122803 426.695984 1731.998535 419.602173 C 1738.87439 412.508423 1750.349976 401.314331 1757.5 394.726501 C 1764.650024 388.138672 1775.827637 378.483093 1782.339111 373.269653 C 1788.850586 368.056213 1799.89917 359.611694 1806.891479 354.504028 C 1813.883667 349.396484 1824.531128 342.090332 1830.552368 338.268311 C 1836.573486 334.446167 1847.125 328.01355 1854 323.973633 C 1860.875 319.933594 1873.25 313.202881 1881.5 309.016357 C 1889.75 304.829956 1903.081665 298.605225 1911.125854 295.183594 C 1919.170044 291.762085 1931.545044 286.780884 1938.625854 284.114258 C 1945.706665 281.447754 1958.316528 277.180176 1966.647827 274.630737 C 1974.979126 272.081421 1990.054077 267.985107 2000.147827 265.527954 C 2010.241455 263.070801 2026.375 259.72937 2036 258.102783 C 2045.625 256.476196 2059.125 254.445679 2066 253.590576 C 2072.875 252.735474 2085.024902 251.582275 2093 251.027832 C 2101.492432 250.437378 2157.272705 250.015625 2227.633301 250.009888 C 2347.766846 250 2347.766846 250 2348.369629 252.25 C 2348.701416 253.487549 2348.967041 301.074951 2348.959961 358 C 2348.952881 414.924988 2348.520752 473.200012 2347.999512 487.5 C 2347.478027 501.799988 2346.140381 521.375 2345.026611 531 C 2343.912842 540.625 2341.843262 555.025024 2340.427734 563 C 2339.012451 570.974976 2336.536377 583.349976 2334.925537 590.5 C 2333.314697 597.650024 2330.19873 609.848694 2328.001221 617.608215 C 2325.803711 625.367798 2321.797119 638.192749 2319.098145 646.108215 C 2316.398926 654.023682 2311.939209 666.125 2309.187256 673 C 2306.435547 679.875 2301.639648 691.125 2298.529785 698 C 2295.419922 704.875 2289.993896 715.960205 2286.471924 722.633789 C 2282.949951 729.307434 2277.080322 739.882446 2273.428223 746.133789 C 2269.776123 752.385193 2263.573242 762.444702 2259.644043 768.48822 C 2255.714844 774.531738 2248.946289 784.431763 2244.602783 790.48822 C 2240.259521 796.544678 2232.543945 806.691895 2227.457275 813.037598 C 2222.370605 819.38324 2214.400635 828.833252 2209.746094 834.037598 C 2205.091797 839.241882 2197.640625 847.325012 2193.187988 852 L 2185.092041 860.5 Z M 1896 815.029785 L 1896 747.970215 L 1925.75 748.235107 L 1955.5 748.5 L 1955.5 781.5 L 1955.5 814.5 L 1925.75 814.764893 L 1896 815.029785 Z M 1970 815 L 1970 748 L 2000 748 L 2030 748 L 2030 781.5 L 2030 815 L 2000 815 L 1970 815 Z M 1896 728.029785 L 1896 660.970215 L 1925.75 661.235107 L 1955.5 661.5 L 1955.5 694.5 L 1955.5 727.5 L 1925.75 727.764893 L 1896 728.029785 Z M 1970 728 L 1970 661 L 2000 661 L 2030 661 L 2030 694.5 L 2030 728 L 2000 728 L 1970 728 Z"/>
    <path id="path2" fill="#ffffff" fill-rule="evenodd" stroke="none" d="M 892.077637 1034.026001 L 822.615479 1033.5 L 820.109131 1022.206482 C 818.075623 1013.043457 817.291748 1010.968323 815.954041 1011.206482 C 815.047241 1011.36792 811.94165 1013.634216 809.052673 1016.242676 C 806.163696 1018.851135 799.907471 1023.175903 795.149963 1025.853149 C 790.392517 1028.530518 783.092346 1031.893921 778.927368 1033.327637 C 774.762451 1034.76123 767.112427 1036.622192 761.927368 1037.463135 C 756.491028 1038.344727 746.996521 1038.941406 739.5 1038.872559 C 732.349976 1038.806885 723.72113 1038.353882 720.324707 1037.865845 C 716.928284 1037.377808 710.178284 1035.828735 705.324707 1034.423462 C 700.47113 1033.018311 692.949524 1030.092651 688.610046 1027.922119 C 684.270569 1025.751709 677.938904 1021.991211 674.539612 1019.565552 C 671.14032 1017.139893 665.816895 1012.409302 662.709717 1009.053162 C 659.602478 1005.697021 655.272705 999.924561 653.087891 996.225586 C 650.903076 992.526489 647.976868 986.082275 646.585083 981.905151 C 645.193359 977.727905 643.578979 970.111206 642.99762 964.978943 C 642.41626 959.846741 642.224365 952.914429 642.571289 949.573853 C 642.918213 946.233215 643.832825 940.319702 644.60376 936.432617 C 645.374695 932.545593 647.139404 926.471802 648.52533 922.935364 C 649.911255 919.398926 652.676941 914.029236 654.671265 911.002747 C 656.665649 907.976196 660.058838 903.378662 662.21167 900.786011 C 664.364563 898.193237 668.929626 893.841064 672.356323 891.11438 C 675.782959 888.387695 681.942139 884.327881 686.043274 882.092651 C 690.14447 879.857422 696.950256 876.87262 701.167236 875.459717 C 705.384216 874.046875 713.034241 871.967468 718.167236 870.838806 C 726.509277 869.004639 731.985168 868.734558 769.75 868.294617 C 812 867.802429 812 867.802429 812 862.082703 C 812 858.93689 811.280457 853.940125 810.401062 850.978821 C 809.521667 848.017517 807.332031 843.296448 805.535217 840.487549 C 803.738403 837.678711 800.520386 834.004761 798.384155 832.323364 C 796.247864 830.641907 792.653931 828.330994 790.397583 827.188049 C 788.141296 826.045105 783.234802 824.577026 779.494263 823.925598 C 775.612427 823.249634 769.765442 823.013428 765.871765 823.375305 C 762.119873 823.723999 756.565369 824.938965 753.528442 826.075256 C 750.22168 827.312439 745.784729 830.171936 742.467468 833.203735 C 739.420898 835.988098 735.776672 840.231323 734.369141 842.633118 C 731.809937 847 731.809937 847 692.893188 847 C 653.976379 847 653.976379 847 654.619141 842.75 C 654.972717 840.412476 656.267761 835.276733 657.49707 831.337219 C 658.726379 827.397644 661.630066 820.647644 663.949646 816.337219 C 666.269226 812.026733 669.920715 806.219788 672.064087 803.432861 C 674.207458 800.645874 679.007324 795.449402 682.73053 791.88501 C 686.453735 788.320679 692.687805 783.303467 696.583923 780.735779 C 700.480103 778.16803 707.455139 774.254089 712.083923 772.038025 C 716.712769 769.822021 724.438354 766.870789 729.251953 765.479736 C 734.065491 764.088684 742.390503 762.289307 747.751953 761.48114 C 753.113342 760.673035 764.025024 760.010925 772 760.009888 C 780.144287 760.00885 790.664124 760.67395 796 761.527161 C 801.224976 762.362732 809.549988 764.196899 814.5 765.603149 C 819.450012 767.009399 827.171082 769.875366 831.657898 771.971985 C 836.144775 774.068542 842.973022 777.826355 846.831909 780.322632 C 850.690735 782.818909 857.313293 788.153015 861.548706 792.17627 C 865.78418 796.199524 871.225281 802.260071 873.640076 805.644104 C 876.054932 809.028198 880.033386 816.024719 882.48114 821.192017 C 884.928894 826.359314 887.940918 834.392517 889.1745 839.043518 C 891.409424 847.469971 891.418579 847.831238 891.747498 940.763 L 892.077637 1034.026001 Z M 953 765 L 1032 765 L 1032 841.412048 C 1032 904.196777 1032.26001 919.182739 1033.457642 925.442627 C 1034.264893 929.661377 1036.376587 935.83667 1038.189697 939.28064 C 1039.990601 942.701294 1043.817017 947.825562 1046.692749 950.667969 C 1049.568604 953.510376 1054.751587 957.226074 1058.210693 958.925049 C 1062.201416 960.885132 1067.515137 962.451416 1072.75 963.210693 C 1079.139282 964.137329 1082.860718 964.138794 1089.25 963.217102 C 1094.863037 962.407349 1099.787964 960.901001 1104.658081 958.504272 C 1109.584717 956.079834 1113.420288 953.22644 1116.961914 949.351318 C 1119.792114 946.254639 1123.212158 941.541321 1124.562134 938.877319 C 1125.912109 936.213257 1127.687866 931.456543 1128.508301 928.306702 C 1129.769531 923.464844 1130 910.403564 1130 843.789917 L 1130 765 L 1170 765 L 1210 765 L 1210 899.5 L 1210 1034 L 1175.670288 1034 L 1141.340576 1034 L 1139.604248 1025.75 C 1138.64917 1021.212524 1137.422607 1015.784302 1136.878418 1013.687378 C 1136.286133 1011.404785 1135.369141 1010.000122 1134.593384 1010.187378 C 1133.880615 1010.359314 1130.876221 1012.687622 1127.916748 1015.36145 C 1124.957275 1018.035217 1119.152832 1022.205994 1115.017944 1024.629883 C 1110.883057 1027.053711 1104.125 1030.338623 1100 1031.929688 C 1095.875 1033.52063 1089.125 1035.573975 1085 1036.492554 C 1080.212646 1037.558716 1071.351318 1038.303467 1060.5 1038.551758 C 1048.823364 1038.819092 1041.256104 1038.514648 1036.334106 1037.579956 C 1032.392944 1036.831421 1026.092896 1035.206543 1022.334106 1033.968994 C 1018.575378 1032.731445 1012.575012 1030.248291 1009 1028.450928 C 1005.424988 1026.653564 999.349976 1022.948853 995.5 1020.218384 C 991.650024 1017.487793 985.770935 1012.384155 982.435425 1008.876892 C 979.099854 1005.369629 974.467896 999.683472 972.142029 996.241089 C 969.816223 992.798584 966.346497 986.723633 964.43158 982.741089 C 962.516602 978.758484 959.884521 972.125 958.58252 968 C 957.280518 963.875 955.491821 956.258179 954.607666 951.073792 C 953.21405 942.90271 953 929.886475 953 853.323792 L 953 765 Z M 1494.017456 847 C 1417.237427 847 1417.237427 847 1416.050537 842.25 C 1415.130493 838.567993 1413.570313 836.238464 1409.111694 831.88916 C 1405.152222 828.026855 1401.564087 825.606445 1397.5979 824.122498 C 1394.428833 822.936829 1387.935425 821.565918 1383.167969 821.076111 C 1378.052002 820.550476 1370.864868 820.556519 1365.629272 821.09082 C 1359.786011 821.687195 1354.753052 822.89624 1350.881836 824.633484 C 1347.499878 826.151245 1343.335327 829.082336 1341.071899 831.537781 C 1338.908691 833.884644 1336.586304 837.648682 1335.911133 839.902405 C 1334.961914 843.070313 1334.948975 844.886536 1335.854126 847.907227 C 1336.501831 850.069153 1338.546021 853.150208 1340.43042 854.804749 C 1342.303467 856.449341 1346.360962 858.739624 1349.446899 859.894226 C 1352.532837 861.048828 1360.107178 862.872009 1366.278809 863.945679 C 1372.450439 865.019348 1383.800049 866.843018 1391.5 867.998291 C 1399.199951 869.153564 1410.449951 871.03009 1416.5 872.168457 C 1422.550049 873.306763 1431.775024 875.582764 1437 877.226257 C 1442.224976 878.869751 1450.775024 882.401794 1456 885.075195 C 1461.224976 887.748657 1468.541382 892.462769 1472.258667 895.550903 C 1475.97583 898.639099 1480.984619 903.940979 1483.38916 907.332886 C 1485.793701 910.724792 1488.927124 915.822632 1490.352417 918.661377 C 1491.77771 921.500122 1493.866455 927.125122 1494.994141 931.161377 C 1496.121826 935.197632 1497.314819 943.224976 1497.645386 949 C 1498.086426 956.705566 1497.803833 961.895264 1496.583618 968.5 C 1495.385498 974.985352 1493.539917 980.294006 1489.978149 987.5 C 1486.925781 993.67511 1482.914551 999.867798 1479.490723 1003.69043 C 1476.441284 1007.095215 1470.920898 1012.161255 1467.223145 1014.948242 C 1463.525391 1017.735291 1456.449951 1021.994263 1451.5 1024.41272 C 1446.550049 1026.831055 1438.224976 1030.157349 1433 1031.804443 C 1427.775024 1033.451416 1419.449951 1035.556152 1414.5 1036.481689 C 1408.168823 1037.665405 1398.383179 1038.272827 1381.5 1038.529907 C 1364.115112 1038.794678 1354.88147 1038.500732 1348 1037.463379 C 1342.775024 1036.675781 1333.858521 1034.664673 1328.185547 1032.994385 C 1322.512695 1031.324219 1314.206665 1028.115112 1309.727905 1025.863159 C 1305.249023 1023.611206 1298.415527 1019.690613 1294.542236 1017.150635 C 1290.669067 1014.610718 1283.86499 1008.925232 1279.422119 1004.516296 C 1274.97937 1000.1073 1269.609131 993.60498 1267.488403 990.06665 C 1265.367676 986.52832 1262.362915 980.51355 1260.811157 976.700562 C 1259.259399 972.887573 1257.317139 966.867065 1256.494873 963.321838 C 1255.672729 959.776611 1255 955.323547 1255 953.426208 C 1255 949.976501 1255 949.976501 1293.733276 950.238281 C 1332.466553 950.5 1332.466553 950.5 1333.048706 954.083496 C 1333.369019 956.054321 1334.631348 959.2854 1335.853882 961.26355 C 1337.076416 963.241699 1339.646973 966.238892 1341.566162 967.92395 C 1343.485352 969.609009 1346.828979 971.892395 1348.996338 972.998169 C 1351.163696 974.103882 1355.763672 975.674927 1359.218506 976.489502 C 1362.926514 977.363708 1370.462769 977.976501 1377.613525 977.985229 C 1384.276001 977.993347 1392.151001 977.547607 1395.113525 976.994751 C 1398.07605 976.441772 1403.352905 974.59375 1406.839844 972.887817 C 1411.724731 970.498047 1413.847412 968.733215 1416.089844 965.197388 C 1418.36792 961.605164 1419 959.447693 1419 955.264404 C 1419 951.869873 1418.260498 948.470703 1416.972778 945.946777 C 1415.85791 943.761292 1413.196777 940.706299 1411.059326 939.157959 C 1408.921875 937.609558 1403.871582 935.388733 1399.836548 934.222778 C 1395.801392 933.056763 1381.925049 930.473511 1369 928.482056 C 1356.074951 926.490662 1341 923.967041 1335.5 922.874084 C 1330 921.781128 1320.832031 919.331238 1315.126831 917.429932 C 1309.421509 915.528687 1301.137207 912.091614 1296.717163 909.792053 C 1292.297119 907.492493 1285.99585 903.592773 1282.714233 901.125977 C 1279.432617 898.659119 1274.375854 893.765259 1271.476807 890.25061 C 1268.577759 886.735962 1264.845459 881.079346 1263.182739 877.680176 C 1261.52002 874.281067 1259.441895 868.799988 1258.564697 865.5 C 1257.687622 862.200012 1256.689941 855.215759 1256.3479 849.979553 C 1255.885498 842.903015 1256.165161 838.282349 1257.437378 831.979553 C 1258.378662 827.315796 1260.406006 820.499817 1261.942505 816.832947 C 1263.479004 813.166016 1266.846802 806.991028 1269.426392 803.110657 C 1272.006104 799.230347 1277.242554 793.202576 1281.06311 789.715637 C 1284.883667 786.228699 1291.57959 781.252136 1295.942749 778.656738 C 1300.30603 776.061279 1307.166382 772.575745 1311.187988 770.911072 C 1315.209595 769.246399 1322.775024 766.768494 1328 765.404602 C 1333.224976 764.04071 1343.180542 762.209595 1350.123413 761.335388 C 1359.408081 760.166321 1367.475098 759.887817 1380.623413 760.28241 C 1393.503052 760.668945 1401.291016 761.422485 1408.485107 762.978027 C 1413.976807 764.165527 1421.17688 766.046875 1424.485107 767.158813 C 1427.793335 768.270752 1433.82251 770.713318 1437.883423 772.586853 C 1441.944336 774.460327 1449.124512 778.559937 1453.839355 781.697144 C 1458.554321 784.83429 1465.806763 790.843689 1469.955933 795.051392 C 1474.105225 799.259094 1479.680298 806.337463 1482.345093 810.781128 C 1485.009888 815.224792 1488.449951 822.604431 1489.989746 827.180298 C 1491.529541 831.756104 1493.065674 838.087524 1493.403442 841.25 L 1494.017456 847 Z M 417 665 C 417 779.643494 417.21344 789.097168 418.394165 788.823303 C 419.16098 788.645508 421.658661 786.563599 423.944611 784.196899 C 426.23056 781.8302 431.471832 777.693176 435.591888 775.003601 C 439.711945 772.313965 446.776733 768.683716 451.291443 766.936279 C 455.806152 765.188904 463.774994 762.866577 469 761.775574 C 476.940674 760.117554 480.962097 759.878784 493.5 760.321167 C 504.167969 760.69751 510.876099 761.468445 516.727478 762.990662 C 521.252563 764.167847 527.651123 766.187622 530.946533 767.479065 C 534.241943 768.770508 540.597839 772.00354 545.07074 774.663574 C 549.543701 777.323608 556.675842 782.725525 560.919983 786.667847 C 565.164124 790.610168 571.000427 797.255066 573.889526 801.434265 C 576.778625 805.613525 581.158203 813.288147 583.621887 818.489075 C 586.085571 823.690002 589.170898 832.161743 590.47821 837.315125 C 591.785461 842.468567 593.337646 851.013123 593.92749 856.303101 C 594.606018 862.387939 595 896.793335 595 949.960571 L 595 1034 L 555 1034 L 515 1034 L 515 955.710083 C 515 889.539612 514.769104 876.533691 513.508362 871.693298 C 512.687927 868.543518 510.835632 863.635742 509.392151 860.78717 C 507.948639 857.938538 504.344299 853.067322 501.382507 849.962158 C 498.420685 846.856995 493.821503 843.132141 491.162048 841.684692 C 488.502625 840.237305 483.440735 838.372742 479.913361 837.54126 C 476.386017 836.709839 470.107056 836.022888 465.960114 836.014771 C 461.813141 836.006653 455.738159 836.694275 452.460114 837.542847 C 449.182037 838.391418 444.475006 840.051941 442 841.23291 C 439.524994 842.413879 434.769012 846.107117 431.431152 849.440063 C 428.093292 852.77301 424.154175 857.982849 422.677582 861.017456 C 421.200989 864.052063 419.327271 869.677063 418.513794 873.517456 C 417.282806 879.328796 417.03183 893.373413 417.017365 957.25 L 417 1034 L 377.616638 1034 C 338.233276 1034 338.233276 1034 337.63028 1031.75 C 337.298645 1030.512451 337.027313 948.5 337.027313 849.5 C 337.027313 750.5 337.298645 668.487488 337.63028 667.25 C 338.233276 665 338.233276 665 377.616638 665 L 417 665 Z M 759.039917 976.967346 C 766.278625 976.987793 772.770935 976.429321 776.458435 975.468811 C 779.691711 974.626648 784.949158 972.54541 788.141724 970.84375 C 791.33429 969.142151 796.230286 965.335022 799.021729 962.383484 C 801.813171 959.431946 805.415955 954.19873 807.027832 950.75415 C 808.639771 947.309631 810.417908 942.069336 810.979309 939.109192 C 811.54071 936.148987 812 930.919678 812 927.488525 C 812 921.301392 811.974243 921.244873 808.875 920.625 C 807.15625 920.28125 797.59375 920.007324 787.625 920.016235 C 777.65625 920.025269 764.549988 920.452759 758.5 920.966309 C 752.450012 921.479858 745.168762 922.710083 742.319458 923.700073 C 739.470215 924.690063 735.140137 926.91272 732.697144 928.639404 C 729.664307 930.782959 727.381409 933.565063 725.500366 937.40979 C 723.025818 942.467529 722.791626 943.839355 723.199585 950.887146 C 723.559082 957.096558 724.223083 959.704956 726.382202 963.38916 C 727.882813 965.949768 730.914612 969.238647 733.119568 970.697815 C 735.324524 972.156982 739.462158 974.157227 742.31427 975.142822 C 746.101685 976.451538 750.611755 976.943481 759.039917 976.967346 Z M 1163 612 C 1084.233276 612 1084.233276 612 1083.630249 609.75 C 1083.298706 608.512512 1083.027344 525.375 1083.027344 425 C 1083.027344 324.625 1083.298706 241.487549 1083.630249 240.25 C 1084.233276 238 1084.233276 238 1118.049194 238 C 1149.394165 238 1151.902466 238.12793 1152.374756 239.75 C 1152.655029 240.712524 1153.877441 246.58252 1155.091309 252.794556 C 1156.58667 260.447754 1157.698975 263.994263 1158.541382 263.794556 C 1159.225098 263.632568 1163.105835 260.335815 1167.165283 256.468506 C 1172.242676 251.631226 1177.356445 247.985352 1183.551758 244.785645 C 1188.504883 242.227539 1196.03125 238.968262 1200.2771 237.542969 C 1204.523071 236.117676 1212.385132 234.290161 1217.748413 233.481689 C 1223.111816 232.673218 1231.550049 232.011841 1236.5 232.011841 C 1241.449951 232.011841 1249.911621 232.676758 1255.303467 233.489502 C 1260.695435 234.302246 1269.115601 236.310181 1274.015015 237.95166 C 1278.914429 239.593018 1285.977783 242.487671 1289.711548 244.384033 C 1293.44519 246.280396 1299.796265 250.118164 1303.824951 252.912476 C 1307.85376 255.706787 1313.712891 260.222168 1316.845215 262.946655 C 1319.977661 265.671143 1325.00647 270.871094 1328.020264 274.502075 C 1331.03418 278.132935 1335.582642 284.263184 1338.128174 288.124634 C 1340.673584 291.986084 1345.033936 299.950317 1347.817749 305.822754 C 1350.601563 311.69519 1354.001587 320.384766 1355.373291 325.132813 C 1356.744995 329.880859 1358.68457 338.655884 1359.683594 344.632813 C 1360.92627 352.067749 1361.5 360.711304 1361.5 372 C 1361.5 383.170532 1360.924683 391.940002 1359.718994 399.150269 C 1358.73938 405.007874 1356.797241 413.782898 1355.402954 418.650269 C 1354.008667 423.517639 1350.495361 432.466736 1347.595459 438.53717 C 1344.695557 444.607605 1340.254639 452.707642 1337.726563 456.53717 C 1335.198608 460.36676 1330.428711 466.703674 1327.126709 470.619324 C 1323.824707 474.534912 1317.77832 480.429382 1313.690186 483.718079 C 1309.602173 487.006775 1302.857544 491.816589 1298.702148 494.406494 C 1294.546753 496.99646 1287.324829 500.673706 1282.653564 502.578125 C 1277.9823 504.482605 1270.691528 506.927979 1266.451782 508.012329 C 1262.212158 509.096619 1254.011108 510.43219 1248.227173 510.980225 C 1241.133423 511.652344 1233.838989 511.640381 1225.812744 510.943481 C 1219.124512 510.362732 1210.101563 508.811035 1205.207153 507.399841 C 1200.418213 506.019043 1194.086182 503.790588 1191.135864 502.447754 C 1188.185547 501.104858 1183.235596 498.46167 1180.135864 496.573914 C 1177.036133 494.686157 1172.510376 491.422302 1170.078613 489.320862 C 1167.646851 487.21936 1165.059326 485.354492 1164.328613 485.176697 C 1163.234375 484.9104 1163 496.066772 1163 548.426697 L 1163 612 Z M 680.576294 511.870239 C 676.684326 511.798889 670.271362 511.364319 666.325256 510.904541 C 662.379089 510.444763 654.65155 509.151733 649.152832 508.031128 C 643.654114 506.910583 634.957764 504.395813 629.827576 502.442749 C 624.697449 500.489746 616.674988 496.846863 612 494.347534 C 607.325012 491.848206 599.358215 486.672119 594.296021 482.845154 C 589.233826 479.018188 581.988647 472.563965 578.195679 468.502441 C 574.40271 464.440918 568.536255 457.08374 565.159241 452.153137 C 561.782166 447.222473 557.201538 439.433472 554.97998 434.844177 C 552.758484 430.254883 549.578125 422.250793 547.912537 417.057251 C 546.246948 411.86377 544.122742 403.088806 543.192078 397.557251 C 542.107971 391.113647 541.5 381.930725 541.5 372 C 541.5 362.069214 542.107971 352.886353 543.192078 346.442749 C 544.122742 340.911255 546.246948 332.13623 547.912537 326.942749 C 549.578125 321.749268 552.758484 313.745117 554.97998 309.155762 C 557.201538 304.566528 561.81665 296.691528 565.23584 291.655762 C 568.655029 286.620117 575.73822 278.198853 580.976257 272.942017 C 586.720398 267.177246 594.468628 260.759155 600.5 256.77002 C 606 253.132324 614.099976 248.372192 618.5 246.191772 C 622.900024 244.011475 630.883545 240.829346 636.24115 239.120483 C 641.598816 237.411499 649.923828 235.31665 654.74115 234.465088 C 659.558533 233.613525 668.744507 232.644043 675.15448 232.310547 C 681.954407 231.956787 691.326477 232.203003 697.65448 232.901611 C 703.619507 233.560059 712.844421 235.186157 718.154297 236.515137 C 723.464172 237.843994 731.789124 240.648071 736.654297 242.746216 C 741.519409 244.844238 749.325012 248.882935 754 251.720825 C 758.674988 254.558838 766.276855 259.915771 770.893005 263.625244 C 775.509094 267.334595 782.709106 274.511108 786.893005 279.572876 C 791.076843 284.634644 796.661133 292.363403 799.302551 296.747925 C 801.943909 301.132446 805.893616 308.868286 808.07959 313.938721 C 810.265564 319.009155 813.159058 327.509766 814.509521 332.828857 C 815.860046 338.147949 817.489258 347.154419 818.130066 352.843018 C 818.826355 359.02417 819.034729 368.077881 818.64801 375.343018 C 818.292114 382.029358 817.644714 389.075012 817.209473 391 C 816.418091 394.5 816.418091 394.5 718.709045 394.754944 C 621 395.009827 621 395.009827 621 397.81073 C 621 399.351257 621.937195 403.38678 623.082642 406.778625 C 624.228027 410.17041 626.852478 415.545288 628.914612 418.722778 C 630.976807 421.900269 635.566223 427.205078 639.113342 430.51123 C 642.660461 433.817383 648.744995 438.194702 652.63446 440.238586 C 656.523926 442.28241 662.584839 444.63324 666.103088 445.462585 C 669.621399 446.29187 677.040527 446.977112 682.590027 446.985229 C 689.477966 446.9953 695.183105 446.359802 700.567322 444.982788 C 704.905334 443.873291 711.689636 441.114624 715.643616 438.852356 C 719.597534 436.590027 725.080383 432.772827 727.827637 430.369568 C 732.822693 426 732.822693 426 772.47876 426 C 812.134766 426 812.134766 426 811.515503 428.25 C 811.174927 429.487488 808.690857 435 805.995361 440.5 C 803.299927 446 798.139771 454.408813 794.528442 459.186218 C 790.917053 463.963623 784.708313 470.86792 780.73114 474.529175 C 776.754028 478.190369 770.349976 483.318726 766.5 485.925476 C 762.650024 488.532288 756.799988 492.230835 753.5 494.14447 C 750.200012 496.058105 743.662354 499.268066 738.971863 501.27771 C 734.281372 503.287354 725.731384 506.046814 719.971863 507.40979 C 714.212341 508.772766 704.584351 510.363159 698.576294 510.94397 C 692.568298 511.52478 684.468323 511.941589 680.576294 511.870239 Z M 358.922577 313 L 316 313 L 316 275.5 L 316 238 L 335.565735 238 C 347.140564 238 355.921448 237.577271 357.065735 236.964844 C 358.929749 235.967163 359 234.442017 359 194.964844 L 359 154 L 398.5 154 L 438 154 L 438 195.383423 C 438 236.766724 438 236.766724 440.25 237.369751 C 441.487488 237.701294 455.212494 237.978882 470.75 237.986328 L 499 238 L 499 275.5 L 499 313 L 468.5 313 L 438 313 L 438 365.450806 C 438 398.427734 438.391266 419.725891 439.053802 422.815247 C 439.709045 425.870483 441.127319 428.703735 442.803802 430.306335 C 444.286713 431.723938 447.524994 433.348938 450 433.91748 C 452.475006 434.485962 464.512512 434.962097 476.75 434.975525 L 499 435 L 499 470.5 L 499 506 L 460.25 505.929626 C 426.729126 505.868774 420.352966 505.613586 413 504.038391 C 408.325012 503.036926 401.959381 501.253845 398.854187 500.075928 C 395.748962 498.89801 390.573975 496.226318 387.354187 494.138794 C 384.134369 492.05127 378.841949 487.464172 375.593231 483.945313 C 372.109406 480.171814 368.328003 474.666199 366.374817 470.523682 C 364.553406 466.660645 362.274109 460.799988 361.309692 457.5 C 359.727936 452.087524 359.525208 444.718872 359.23941 382.25 L 358.922577 313 Z M 869 506 L 869 238 L 903.461426 238 C 937.922913 238 937.922913 238 938.961426 242 C 939.532654 244.199951 940.476807 247.912476 941.059509 250.25 C 941.642273 252.587524 942.355713 255.31311 942.644958 256.306885 C 942.934204 257.300659 943.740479 257.975708 944.436646 257.806885 C 945.132874 257.638062 948.066772 255.363647 950.956482 252.752563 C 953.846191 250.141479 959.50238 246.378296 963.525818 244.389771 C 967.549255 242.401245 973.464355 240.157104 976.670593 239.402832 C 980.937134 238.398926 990.744141 238.0271 1013.25 238.015625 L 1044 238 L 1044 275.5 L 1044 313 L 1016.75 313.017334 C 997.031006 313.029907 987.64093 313.428711 982.773315 314.460205 C 979.073608 315.244263 974.044556 316.771362 971.597656 317.85376 C 969.150696 318.936157 965.058411 321.748535 962.503662 324.103394 C 959.948975 326.458252 956.76593 330.249634 955.430359 332.528687 C 954.094727 334.807739 952.101563 340.192993 951.000977 344.496094 C 949.0849 351.987915 949 355.580566 949 429.159973 L 949 506 L 909 506 L 869 506 Z M 1222 437.919434 C 1227.224976 437.947449 1234.383179 437.290833 1237.906982 436.460205 C 1241.430786 435.629578 1247.055786 433.512451 1250.406982 431.755371 C 1253.806396 429.973022 1259.640991 425.452881 1263.605225 421.530396 C 1269.089355 416.103943 1271.640869 412.560791 1274.789063 406 C 1277.032349 401.325012 1279.57251 394.031494 1280.433838 389.792175 C 1281.295288 385.552856 1282 377.546387 1282 372 C 1282 366.453613 1281.295288 358.447144 1280.433838 354.207886 C 1279.57251 349.968506 1277.069336 342.755859 1274.871338 338.179688 C 1271.943848 332.085205 1269.085938 328.049194 1264.187378 323.092041 C 1259.349854 318.196655 1255.244995 315.202881 1249.347656 312.269165 C 1244.217529 309.717163 1238.47229 307.754395 1233.850586 306.974854 C 1229.60083 306.257935 1222.922974 305.969482 1218.00293 306.290039 C 1212.769531 306.631104 1206.954712 307.769531 1202.880371 309.25061 C 1199.239624 310.574219 1194.203613 312.862671 1191.689087 314.336304 C 1189.174683 315.809814 1184.875732 319.198975 1182.135864 321.867554 C 1179.396118 324.536255 1175.549805 329.228149 1173.588501 332.294067 C 1171.627319 335.360107 1169.116455 340.16748 1168.008911 342.977417 C 1166.901367 345.787231 1165.321289 351.950806 1164.497559 356.674072 C 1163.67395 361.397461 1163 368.294067 1163 372 C 1163 375.705933 1163.681763 382.647583 1164.515015 387.425903 C 1165.348267 392.204224 1167.127319 398.814087 1168.468384 402.114563 C 1169.809448 405.414978 1172.947021 410.974487 1175.440552 414.468933 C 1177.934204 417.963379 1182.111084 422.648865 1184.722534 424.881104 C 1187.333984 427.113281 1192.177246 430.297363 1195.485352 431.956726 C 1198.793457 433.616089 1203.974976 435.625061 1207 436.421082 C 1210.025024 437.217102 1216.775024 437.891357 1222 437.919434 Z M 680.502808 347 C 740.255615 347 740.255615 347 739.617676 343.010376 C 739.266785 340.81604 738.084961 336.653564 736.991394 333.760376 C 735.897888 330.867188 733.614441 326.086914 731.917114 323.137451 C 730.219788 320.18811 725.992737 314.978271 722.523682 311.560059 C 718.435425 307.53186 713.60968 304.057251 708.8078 301.68457 C 704.733093 299.671265 698.998047 297.568604 696.063171 297.011963 C 693.128296 296.455444 686.799866 296 682 296 C 677.200134 296 670.84906 296.447144 667.886475 296.993774 C 664.92395 297.540405 658.900024 299.773926 654.5 301.957275 C 650.099976 304.140625 644.330811 307.805542 641.679626 310.10144 C 639.028442 312.397461 635.146057 316.594971 633.052185 319.429443 C 630.958252 322.263794 628.002441 327.035034 626.483704 330.032227 C 624.964905 333.029419 623.317139 336.835693 622.82196 338.490845 C 622.326782 340.145874 621.65802 342.737549 621.335815 344.25 C 620.75 347 620.75 347 680.502808 347 Z"/>
</svg>
