<svg xmlns="http://www.w3.org/2000/svg" width="256" height="256" viewBox="0 0 1024 1024">
  <rect width="1024" height="1024" rx="160" fill="#1B1B1B"/>
  <defs>
    <linearGradient id="g" x1="0" x2="0" y1="0" y2="1">
      <stop offset="0%" stop-color="#B4643E"/>
    <stop offset="10%" stop-color="#B4643E"/>
    <stop offset="10%" stop-color="#D59B2D"/>
    <stop offset="20%" stop-color="#D59B2D"/>
    <stop offset="20%" stop-color="#6E7F3B"/>
    <stop offset="32%" stop-color="#6E7F3B"/>
    <stop offset="32%" stop-color="#1E7A83"/>
    <stop offset="46%" stop-color="#1E7A83"/>
    <stop offset="46%" stop-color="#6A3D57"/>
    <stop offset="60%" stop-color="#6A3D57"/>
    <stop offset="60%" stop-color="#6C8C74"/>
    <stop offset="74%" stop-color="#6C8C74"/>
    <stop offset="74%" stop-color="#CF8E6B"/>
    <stop offset="88%" stop-color="#CF8E6B"/>
    <stop offset="88%" stop-color="#1E7A83"/>
    <stop offset="100%" stop-color="#1E7A83"/>
    </linearGradient>
  </defs>
  <path d="M512 200 C470 220 440 260 420 300 C400 340 392 388 396 424 C340 422 292 410 248 388 C278 450 328 496 392 522 C356 548 314 564 270 568 C332 640 430 672 512 680 C594 672 692 640 754 568 C710 564 668 548 632 522 C696 496 746 450 776 388 C732 410 684 422 628 424 C632 388 624 340 604 300 C584 260 554 220 512 200 Z" fill="url(#g)"/>
</svg>
