<?xml version="1.0" encoding="UTF-8"?>
<svg width="1200" height="900" viewBox="0 0 1200 900" xmlns="http://www.w3.org/2000/svg">
  <defs>
    <linearGradient id="retroStripes" x1="0" x2="0" y1="0" y2="1">
      <stop offset="0%" stop-color="#B4643E"/>
    <stop offset="10%" stop-color="#B4643E"/>
    <stop offset="10%" stop-color="#D59B2D"/>
    <stop offset="20%" stop-color="#D59B2D"/>
    <stop offset="20%" stop-color="#6E7F3B"/>
    <stop offset="32%" stop-color="#6E7F3B"/>
    <stop offset="32%" stop-color="#1E7A83"/>
    <stop offset="46%" stop-color="#1E7A83"/>
    <stop offset="46%" stop-color="#6A3D57"/>
    <stop offset="60%" stop-color="#6A3D57"/>
    <stop offset="60%" stop-color="#6C8C74"/>
    <stop offset="74%" stop-color="#6C8C74"/>
    <stop offset="74%" stop-color="#CF8E6B"/>
    <stop offset="88%" stop-color="#CF8E6B"/>
    <stop offset="88%" stop-color="#1E7A83"/>
    <stop offset="100%" stop-color="#1E7A83"/>
    </linearGradient>
    <filter id="soft" x="-20%" y="-20%" width="140%" height="140%">
      <feGaussianBlur in="SourceGraphic" stdDeviation="0.2"/>
    </filter>
  </defs>

  <rect width="100%" height="100%" fill="#F6F3EE"/>
  <g transform="translate(100,40)">
    <g transform="scale(0.85) translate(-100,80)">
      <path d="M512 140 C470 160 440 200 420 240 C400 280 390 330 392 370 C350 368 312 360 276 344 C240 328 206 304 176 272 C192 320 216 360 248 392 C280 424 320 448 364 462 C328 484 288 496 246 498 C204 500 160 492 116 472 C156 528 210 566 272 580 C334 594 402 584 468 554 C472 598 482 642 500 684 C518 726 544 766 576 800 C606 768 628 730 642 690 C656 650 662 608 660 568 C724 594 792 602 858 592 C924 582 988 552 1044 502 C990 506 940 500 896 484 C852 468 814 444 784 412 C830 392 870 364 902 328 C934 292 958 248 972 198 C934 228 890 248 842 258 C794 268 744 268 696 258 C706 214 706 168 696 122 C686 76 666 30 636 -12 C612 32 596 78 588 124 C580 170 580 216 588 260 C560 252 536 208 512 140 Z" fill="url(#retroStripes)" stroke="#1B1B1B" stroke-width="16" filter="url(#soft)"/>
    </g>
    <!-- Wordmark -->
    <g transform="translate(220,720)">
      <text x="0" y="0" font-family="Inter, ui-sans-serif, system-ui" font-size="140" font-weight="800" letter-spacing="2" fill="#1E7A83">TERP</text>
      <text x="0" y="130" font-family="Inter, ui-sans-serif, system-ui" font-size="140" font-weight="800" letter-spacing="2" fill="#1E7A83">HAUS</text>
    </g>
  </g>
</svg>
